<?xml version="1.0" encoding="UTF-8" standalone="no" ?>
<!DOCTYPE svg PUBLIC "-//W3C//DTD SVG 1.1//EN" "http://www.w3.org/Graphics/SVG/1.1/DTD/svg11.dtd">
<svg xmlns="http://www.w3.org/2000/svg" xmlns:xlink="http://www.w3.org/1999/xlink" version="1.1" width="512" height="256" viewBox="0 0 512 256" xml:space="preserve">
<desc>Created with Fabric.js 5.2.4</desc>
<defs>
</defs>
<g transform="matrix(1 0 0 1 256 128)" id="f8b07705-f325-4982-96bb-6acf4f57ee42"  >
<rect style="stroke: none; stroke-width: 1; stroke-dasharray: none; stroke-linecap: butt; stroke-dashoffset: 0; stroke-linejoin: miter; stroke-miterlimit: 4; fill: rgb(255,255,255); fill-rule: nonzero; opacity: 1; visibility: hidden;" vector-effect="non-scaling-stroke"  x="-256" y="-128" rx="0" ry="0" width="512" height="256" />
</g>
<g transform="matrix(0 0 0 0 0 0)" id="813ec290-3205-4a6c-86a2-233d61e039d7"  >
</g>
<g transform="matrix(0.29 0 0 0.29 256 128)"  >
<path style="stroke: none; stroke-width: 1; stroke-dasharray: none; stroke-linecap: butt; stroke-dashoffset: 0; stroke-linejoin: miter; stroke-miterlimit: 4; fill: rgb(229,177,58); fill-rule: nonzero; opacity: 1;" vector-effect="non-scaling-stroke"  transform=" translate(-960, -535)" d="M 620 524 L 620 266 L 451 266 C 449.347 266 448 267.347 448 269 C 448 269.131 448.002 269.247 448.008 269.347 L 512.9739999999999 356.52099999999996 L 513.531 357.26199999999994 C 522.2099999999999 368.78899999999993 530.001 381.47299999999996 530.001 409.66799999999995 C 530.001 441.996 517.906 471.47299999999996 495.94399999999996 492.66599999999994 C 475.004 512.872 447.086 524 417.333 524 L 56 524 L 56 382 L 354.333 382 C 355.83700000000005 382 356 379.902 356 379 L 355.998 378.779 C 347.816 369.082 302.324 315.153 293.101 304.084 L 292.74 303.651 L 292.40000000000003 303.2 C 283.75700000000006 291.678 276.00000000000006 278.937 276.00000000000006 250 C 276.00000000000006 217.686 287.87700000000007 188.011 309.4440000000001 166.44400000000002 C 330.365 145.522 358.264 134 388 134 L 926 134 L 926 266 L 762 266 L 762 524 L 620 524 z M 1173.941 524 L 1157.941 474 L 1024.058 474 L 1008.058 524 L 867.756 524 L 993.9979999999999 134 L 1185.916 134 L 1314.412 524 L 1173.941 524 z M 1117.364 356 L 1091 277.816 L 1064.636 356 L 1117.364 356 z M 1630 524 C 1613.416 524 1598.388 518.077 1585.332 506.396 C 1563.151 486.55100000000004 1524.7240000000002 450.427 1496 423.245 L 1496 524 L 1348 524 L 1348 134 L 1602 134 C 1673.684 134 1732 192.31799999999998 1732 264 C 1732 310.881 1706.513 353.303 1667.152 376.149 C 1670.588 379.812 1673.507 382 1680 382 L 1864 382 L 1864 524 L 1630 524 z M 1573 290 C 1583.478 290 1592 281.478 1592 271 C 1592 260.523 1583.478 252 1573 252 L 1496 252 L 1496 290 L 1573 290 z M 399.25 936 L 343.5 772.259 L 287.75 936 L 190.042 936 L 62.671 546 L 206.059 546 L 238.835 648.426 L 274.343 546 L 412.658 546 L 448.166 648.426 L 480.941 546 L 624.33 546 L 496.959 936 z M 869.941 936 L 853.941 886 L 720.059 886 L 704.059 936 L 563.756 936 L 689.9979999999999 546 L 881.9159999999999 546 L 1010.414 936 L 869.941 936 z M 813.364 768 L 787 689.815 L 760.636 768 L 813.3639999999999 768 z M 1330 936 C 1313.418 936 1298.39 930.077 1285.332 918.396 C 1263.151 898.55 1224.7240000000002 862.4259999999999 1196 835.2439999999999 L 1196 936 L 1048 936 L 1048 546 L 1302 546 C 1373.684 546 1432 604.317 1432 676 C 1432 722.88 1406.513 765.303 1367.152 788.149 C 1370.588 791.812 1373.507 794 1380 794 L 1592.334 794 C 1593.838 794 1594 791.902 1594 791 C 1594 790.921 1594 790.848 1593.998 790.779 C 1585.82 781.088 1540.324 727.153 1531.101 716.0840000000001 L 1530.74 715.6510000000001 L 1530.402 715.2 C 1521.759 703.678 1514.0030000000002 690.936 1514.0030000000002 662 C 1514.0030000000002 629.686 1525.88 600.011 1547.4450000000002 578.443 C 1568.365 557.522 1596.264 546 1626 546 L 1864 546 L 1864 678 L 1689 678 C 1687.347 678 1686 679.347 1686 681 C 1686 681.132 1686.004 681.246 1686.008 681.347 L 1750.9750000000001 768.521 L 1751.5320000000002 769.262 C 1760.2120000000002 780.7879999999999 1768.0030000000002 793.472 1768.0030000000002 821.6659999999999 C 1768.0030000000002 853.9949999999999 1755.9070000000002 883.472 1733.9450000000002 904.664 C 1713.005 924.871 1685.0890000000002 936 1655.3350000000003 936 L 1330 936 z M 1273 702 C 1283.478 702 1292 693.478 1292 683 C 1292 672.523 1283.478 664 1273 664 L 1196 664 L 1196 702 L 1273 702 z" stroke-linecap="round" />
</g>
<g transform="matrix(0.29 0 0 0.29 256 128)"  >
<path style="stroke: none; stroke-width: 1; stroke-dasharray: none; stroke-linecap: butt; stroke-dashoffset: 0; stroke-linejoin: miter; stroke-miterlimit: 4; fill: rgb(33,37,41); fill-rule: nonzero; opacity: 1;" vector-effect="non-scaling-stroke"  transform=" translate(-960, -535)" d="M 904 156 L 388 156 C 340 156 298 194 298 250 C 298 274 304 282 310 290 C 320 302 374 366 374 366 C 375.697 368.264 378 372 378 379 C 378 392.808 368.141 404 354.33299999999997 404 L 78 404 L 78 502 L 417.333 502 C 465.334 502 508 465.668 508 409.668 C 508 385.668 501.334 377.668 495.334 369.668 L 430 282 C 428.304 279.737 426 276 426 269 C 426 255.193 437.193 244 451 244 L 642 244 L 642 502 L 740 502 L 740 244 L 904 244 L 904 156 z M 1170 156 L 1010 156 L 898 502 L 992 502 L 1008 452 L 1174 452 L 1190 502 L 1284 502 L 1170 156 z M 1034 378 L 1091 208.965 L 1148 378 L 1034 378 z M 1680 404 C 1664 404 1655.709 396.279 1650 390 L 1630 368 C 1675.944 355.581 1710 313.872 1710 264 C 1710 204.35399999999998 1661.647 156 1602 156 L 1370 156 L 1370 502 L 1474 502 L 1474 372 C 1474 372 1562 456 1600 490 C 1604.217 493.772 1614 502 1630 502 L 1842 502 L 1842 404 L 1680 404 z M 1474 230 L 1573 230 C 1595.645 230 1614 248.356 1614 271 C 1614 293.645 1595.645 312 1573 312 L 1474 312 L 1474 230 z M 497 568 L 449 718 L 397 568 L 290 568 L 238 718 L 190 568 L 93 568 L 206 914 L 272 914 L 343.5 704 L 415 914 L 481 914 L 594 568 z M 866 568 L 706 568 L 594 914 L 688 914 L 704 864 L 870 864 L 886 914 L 980 914 L 866 568 z M 730 790 L 787 620.966 L 844 790 L 730 790 z M 1689 656 L 1842 656 L 1842 568 L 1626 568 C 1578 568 1536 606 1536 662 C 1536 686 1542 694 1548 702 C 1558 714 1612 778 1612 778 C 1613.697 780.264 1616 784 1616 791 C 1616 804.808 1606.142 816 1592.334 816 L 1380 816 C 1364 816 1355.709 808.279 1350 802 L 1330 780 C 1375.944 767.58 1410 725.871 1410 676 C 1410 616.354 1361.647 568 1302 568 L 1070 568 L 1070 914 L 1174 914 L 1174 784 C 1174 784 1262 868 1300 902 C 1304.217 905.771 1314 914 1330 914 L 1655.334 914 C 1703.334 914 1746 877.6659999999999 1746 821.6659999999999 C 1746 797.6659999999999 1739.334 789.6659999999999 1733.334 781.6659999999999 L 1668 694 C 1666.304 691.737 1664 688 1664 681 C 1664 667.193 1675.193 656 1689 656 z M 1273 724 L 1174 724 L 1174 642 L 1273 642 C 1295.645 642 1314 660.356 1314 683 C 1314 705.644 1295.644 724 1273 724 z" stroke-linecap="round" />
</g>
</svg>